<svg width="104" height="32" viewBox="0 0 104 32" fill="none" xmlns="http://www.w3.org/2000/svg">
<path d="M78.5186 26.6667V5.33337H82.5778L90.5778 14.8741L98.5482 5.33337H102.637V26.6667H99.0519V10.3112L90.5778 20.4149L82.0741 10.3408V26.6667H78.5186Z" fill="#0A0A0A"/>
<path d="M54.3999 26.6667V5.33337H73.9851L71.1428 8.91856L54.3999 8.81494V14.1186L69.1428 14.2223L66.3004 17.7778H54.3999V23.0815H73.9851L71.1428 26.6667H54.3999Z" fill="#172554"/>
<path d="M27.2 26.6667V5.33337H31.2592L44.9481 21.6297V5.33337H48.5333V26.6667H44.474L30.7555 10.3408V26.6667H27.2Z" fill="#0A0A0A"/>
<path d="M4 26.6667C3.26914 26.6667 2.59753 26.4889 1.98519 26.1334C1.37284 25.7778 0.888889 25.2939 0.533334 24.6815C0.177778 24.0692 0 23.3976 0 22.6667V5.33337H3.55556V22.5482C3.55556 22.7062 3.60494 22.8346 3.7037 22.9334C3.82222 23.0321 3.95062 23.0815 4.08889 23.0815H17.2148C17.3531 23.0815 17.4716 23.0321 17.5704 22.9334C17.6889 22.8346 17.7481 22.7062 17.7481 22.5482V5.33337H21.3333V22.6667C21.3333 23.3976 21.1457 24.0692 20.7704 24.6815C20.4148 25.2939 19.9309 25.7778 19.3185 26.1334C18.7259 26.4889 18.0642 26.6667 17.3333 26.6667H4Z" fill="#0A0A0A"/>
</svg>
