<svg width="138" height="48" viewBox="0 0 138 48" fill="none" xmlns="http://www.w3.org/2000/svg">
<path d="M78.5186 26.6667V5.33337H82.5778L90.5778 14.8741L98.5482 5.33337H102.637V26.6667H99.0519V10.3112L90.5778 20.4149L82.0741 10.3408V26.6667H78.5186Z" fill="#0A0A0A"/>
<path d="M54.3999 26.6667V5.33337H73.9851L71.1428 8.91856L54.3999 8.81494V14.1186L69.1428 14.2223L66.3004 17.7778H54.3999V23.0815H73.9851L71.1428 26.6667H54.3999Z" fill="#172554"/>
<path d="M27.2 26.6667V5.33337H31.2592L44.9481 21.6297V5.33337H48.5333V26.6667H44.474L30.7555 10.3408V26.6667H27.2Z" fill="#0A0A0A"/>
<path d="M4 26.6667C3.26914 26.6667 2.59753 26.4889 1.98519 26.1334C1.37284 25.7778 0.888889 25.2939 0.533334 24.6815C0.177778 24.0692 0 23.3976 0 22.6667V5.33337H3.55556V22.5482C3.55556 22.7062 3.60494 22.8346 3.7037 22.9334C3.82222 23.0321 3.95062 23.0815 4.08889 23.0815H17.2148C17.3531 23.0815 17.4716 23.0321 17.5704 22.9334C17.6889 22.8346 17.7481 22.7062 17.7481 22.5482V5.33337H21.3333V22.6667C21.3333 23.3976 21.1457 24.0692 20.7704 24.6815C20.4148 25.2939 19.9309 25.7778 19.3185 26.1334C18.7259 26.4889 18.0642 26.6667 17.3333 26.6667H4Z" fill="#0A0A0A"/>
<path d="M1.22667 45.6666V36.2H2.85333L7.53333 44.52V36.2H8.68V45.6666H6.97333L2.37333 37.5066V45.6666H1.22667ZM13.672 45.8266C13.0053 45.8266 12.4275 45.6755 11.9386 45.3733C11.4586 45.0711 11.0853 44.6444 10.8186 44.0933C10.5609 43.5333 10.432 42.88 10.432 42.1333C10.432 41.3866 10.5609 40.7377 10.8186 40.1866C11.0853 39.6355 11.4542 39.2088 11.9253 38.9066C12.4053 38.5955 12.9698 38.44 13.6186 38.44C14.232 38.44 14.7742 38.5866 15.2453 38.88C15.7164 39.1644 16.0809 39.5822 16.3386 40.1333C16.6053 40.6844 16.7386 41.3555 16.7386 42.1466V42.48H11.6053C11.6498 43.2355 11.8498 43.8044 12.2053 44.1866C12.5698 44.5688 13.0586 44.76 13.672 44.76C14.1342 44.76 14.512 44.6533 14.8053 44.44C15.1075 44.2177 15.3164 43.9288 15.432 43.5733L16.632 43.6666C16.4453 44.2977 16.0898 44.8177 15.5653 45.2266C15.0498 45.6266 14.4186 45.8266 13.672 45.8266ZM11.6053 41.4933H15.512C15.4586 40.8088 15.2586 40.3066 14.912 39.9866C14.5742 39.6666 14.1431 39.5066 13.6186 39.5066C13.0764 39.5066 12.6275 39.6755 12.272 40.0133C11.9253 40.3422 11.7031 40.8355 11.6053 41.4933ZM20.6356 45.6666C19.9956 45.6666 19.5201 45.52 19.209 45.2266C18.9067 44.9333 18.7556 44.4755 18.7556 43.8533V36.9466H19.8756V43.8266C19.8756 44.1466 19.9467 44.3688 20.089 44.4933C20.2312 44.6177 20.449 44.68 20.7423 44.68H21.7556V45.6666H20.6356ZM17.7156 39.5866V38.6H21.7556V39.5866H17.7156ZM24.6201 45.6666L22.4334 38.6H23.6601L25.3134 44.4933L26.9934 38.6H28.1934L29.8734 44.4933L31.5401 38.6H32.7668L30.5801 45.6666H29.1668L27.5934 40.2933L26.0201 45.6666H24.6201ZM36.6064 45.8266C35.9575 45.8266 35.3886 45.6755 34.8997 45.3733C34.4108 45.0711 34.033 44.6444 33.7664 44.0933C33.4997 43.5333 33.3664 42.88 33.3664 42.1333C33.3664 41.3777 33.4997 40.7244 33.7664 40.1733C34.033 39.6222 34.4108 39.1955 34.8997 38.8933C35.3886 38.5911 35.9575 38.44 36.6064 38.44C37.2552 38.44 37.8197 38.5911 38.2997 38.8933C38.7886 39.1955 39.1664 39.6222 39.433 40.1733C39.6997 40.7244 39.833 41.3777 39.833 42.1333C39.833 42.88 39.6997 43.5333 39.433 44.0933C39.1664 44.6444 38.7886 45.0711 38.2997 45.3733C37.8197 45.6755 37.2552 45.8266 36.6064 45.8266ZM36.6064 44.76C37.2552 44.76 37.7575 44.5288 38.113 44.0666C38.4775 43.5955 38.6597 42.9511 38.6597 42.1333C38.6597 41.3155 38.4775 40.6755 38.113 40.2133C37.7575 39.7422 37.2552 39.5066 36.6064 39.5066C35.9575 39.5066 35.4508 39.7422 35.0864 40.2133C34.7219 40.6755 34.5397 41.3155 34.5397 42.1333C34.5397 42.9511 34.7219 43.5955 35.0864 44.0666C35.4508 44.5288 35.9575 44.76 36.6064 44.76ZM41.426 45.6666V38.6H42.4127L42.466 40.3866L42.3594 40.3466C42.4483 39.7422 42.6394 39.3022 42.9327 39.0266C43.2349 38.7422 43.6349 38.6 44.1327 38.6H44.826V39.6666H44.146C43.7905 39.6666 43.4927 39.7333 43.2527 39.8666C43.0216 39.9911 42.8438 40.1822 42.7194 40.44C42.6038 40.6888 42.546 41.0088 42.546 41.4V45.6666H41.426ZM46.1411 45.6666V36.2H47.2611V42.4L50.7011 38.6H52.1945L49.4078 41.6L52.3145 45.6666H50.9545L48.6478 42.36L47.2611 43.8266V45.6666H46.1411ZM57.6324 45.6666V36.2H59.2324L62.2591 44.4133L65.2724 36.2H66.8724V45.6666H65.7257V38.3333L63.0191 45.6666H61.4857L58.7791 38.3333V45.6666H57.6324ZM71.0082 45.8266C70.2793 45.8266 69.6971 45.6577 69.2616 45.32C68.8349 44.9822 68.6216 44.5111 68.6216 43.9066C68.6216 43.3022 68.7993 42.8266 69.1549 42.48C69.5105 42.1333 70.0749 41.8888 70.8482 41.7466L73.3549 41.28C73.3549 40.6844 73.2127 40.24 72.9282 39.9466C72.6527 39.6533 72.2349 39.5066 71.6749 39.5066C71.186 39.5066 70.7993 39.6177 70.5149 39.84C70.2305 40.0533 70.0349 40.3644 69.9282 40.7733L68.7416 40.68C68.8749 40.0133 69.1949 39.4755 69.7016 39.0666C70.2171 38.6488 70.8749 38.44 71.6749 38.44C72.5816 38.44 73.2749 38.6977 73.7549 39.2133C74.2349 39.72 74.4749 40.4222 74.4749 41.32V44.24C74.4749 44.4 74.5016 44.5155 74.5549 44.5866C74.6171 44.6488 74.7149 44.68 74.8482 44.68H75.1282V45.6666C75.0927 45.6755 75.0349 45.68 74.9549 45.68C74.8749 45.6888 74.7905 45.6933 74.7016 45.6933C74.3816 45.6933 74.1193 45.6444 73.9149 45.5466C73.7193 45.44 73.5771 45.28 73.4882 45.0666C73.3993 44.8444 73.3549 44.5555 73.3549 44.2L73.4882 44.2266C73.426 44.5288 73.2749 44.8044 73.0349 45.0533C72.7949 45.2933 72.4971 45.4844 72.1416 45.6266C71.786 45.76 71.4082 45.8266 71.0082 45.8266ZM71.1149 44.84C71.586 44.84 71.986 44.7511 72.3149 44.5733C72.6527 44.3866 72.9105 44.1377 73.0882 43.8266C73.266 43.5066 73.3549 43.1511 73.3549 42.76V42.2533L71.0616 42.68C70.5816 42.7688 70.2482 42.9066 70.0616 43.0933C69.8838 43.2711 69.7949 43.5066 69.7949 43.8C69.7949 44.1288 69.9105 44.3866 70.1416 44.5733C70.3816 44.7511 70.706 44.84 71.1149 44.84ZM76.4599 45.6666V38.6H77.4866L77.5266 40.4L77.3932 40.28C77.4821 39.8622 77.6377 39.52 77.8599 39.2533C78.0821 38.9777 78.3488 38.7733 78.6599 38.64C78.9799 38.5066 79.3221 38.44 79.6866 38.44C80.2288 38.44 80.6732 38.56 81.0199 38.8C81.3755 39.04 81.6377 39.3644 81.8066 39.7733C81.9843 40.1733 82.0732 40.6222 82.0732 41.12V45.6666H80.9532V41.44C80.9532 41.0044 80.8999 40.64 80.7932 40.3466C80.6955 40.0444 80.5355 39.8177 80.3132 39.6666C80.091 39.5066 79.8021 39.4266 79.4466 39.4266C78.9043 39.4266 78.4555 39.6 78.0999 39.9466C77.7532 40.2844 77.5799 40.7822 77.5799 41.44V45.6666H76.4599ZM86.0504 45.8266C85.3215 45.8266 84.7393 45.6577 84.3038 45.32C83.8771 44.9822 83.6638 44.5111 83.6638 43.9066C83.6638 43.3022 83.8415 42.8266 84.1971 42.48C84.5526 42.1333 85.1171 41.8888 85.8904 41.7466L88.3971 41.28C88.3971 40.6844 88.2549 40.24 87.9704 39.9466C87.6949 39.6533 87.2771 39.5066 86.7171 39.5066C86.2282 39.5066 85.8415 39.6177 85.5571 39.84C85.2726 40.0533 85.0771 40.3644 84.9704 40.7733L83.7838 40.68C83.9171 40.0133 84.2371 39.4755 84.7438 39.0666C85.2593 38.6488 85.9171 38.44 86.7171 38.44C87.6238 38.44 88.3171 38.6977 88.7971 39.2133C89.2771 39.72 89.5171 40.4222 89.5171 41.32V44.24C89.5171 44.4 89.5438 44.5155 89.5971 44.5866C89.6593 44.6488 89.7571 44.68 89.8904 44.68H90.1704V45.6666C90.1349 45.6755 90.0771 45.68 89.9971 45.68C89.9171 45.6888 89.8326 45.6933 89.7438 45.6933C89.4238 45.6933 89.1615 45.6444 88.9571 45.5466C88.7615 45.44 88.6193 45.28 88.5304 45.0666C88.4415 44.8444 88.3971 44.5555 88.3971 44.2L88.5304 44.2266C88.4682 44.5288 88.3171 44.8044 88.0771 45.0533C87.8371 45.2933 87.5393 45.4844 87.1838 45.6266C86.8282 45.76 86.4504 45.8266 86.0504 45.8266ZM86.1571 44.84C86.6282 44.84 87.0282 44.7511 87.3571 44.5733C87.6949 44.3866 87.9526 44.1377 88.1304 43.8266C88.3082 43.5066 88.3971 43.1511 88.3971 42.76V42.2533L86.1038 42.68C85.6238 42.7688 85.2904 42.9066 85.1038 43.0933C84.926 43.2711 84.8371 43.5066 84.8371 43.8C84.8371 44.1288 84.9526 44.3866 85.1838 44.5733C85.4238 44.7511 85.7482 44.84 86.1571 44.84ZM94.156 47.8266C93.6494 47.8266 93.1916 47.7422 92.7827 47.5733C92.3738 47.4044 92.0316 47.1644 91.756 46.8533C91.4805 46.5422 91.2938 46.1822 91.196 45.7733L92.3694 45.6933C92.476 46.0222 92.6627 46.28 92.9294 46.4666C93.2049 46.6622 93.6138 46.76 94.156 46.76C94.796 46.76 95.2849 46.6311 95.6227 46.3733C95.9694 46.1155 96.1427 45.7288 96.1427 45.2133V44.0666C95.9738 44.44 95.7027 44.7377 95.3294 44.96C94.956 45.1822 94.5383 45.2933 94.076 45.2933C93.4805 45.2933 92.9472 45.1466 92.476 44.8533C92.0138 44.56 91.6494 44.1555 91.3827 43.64C91.1249 43.1244 90.996 42.5333 90.996 41.8666C90.996 41.1911 91.1249 40.6 91.3827 40.0933C91.6405 39.5777 91.996 39.1733 92.4494 38.88C92.9116 38.5866 93.436 38.44 94.0227 38.44C94.5205 38.44 94.9649 38.5555 95.356 38.7866C95.756 39.0177 96.036 39.3288 96.196 39.72V38.6H97.2627V45.1866C97.2627 45.7377 97.1383 46.2088 96.8894 46.6C96.6405 47 96.2849 47.3022 95.8227 47.5066C95.3605 47.72 94.8049 47.8266 94.156 47.8266ZM94.1294 44.2266C94.7338 44.2266 95.2183 44.0177 95.5827 43.6C95.9472 43.1733 96.1338 42.5955 96.1427 41.8666C96.1516 41.3777 96.0716 40.96 95.9027 40.6133C95.7427 40.2577 95.5072 39.9866 95.196 39.8C94.8938 39.6044 94.5383 39.5066 94.1294 39.5066C93.5072 39.5066 93.0227 39.72 92.676 40.1466C92.3383 40.5644 92.1694 41.1377 92.1694 41.8666C92.1694 42.5955 92.3427 43.1733 92.6894 43.6C93.0449 44.0177 93.5249 44.2266 94.1294 44.2266ZM102.089 45.8266C101.423 45.8266 100.845 45.6755 100.356 45.3733C99.8758 45.0711 99.5025 44.6444 99.2358 44.0933C98.9781 43.5333 98.8492 42.88 98.8492 42.1333C98.8492 41.3866 98.9781 40.7377 99.2358 40.1866C99.5025 39.6355 99.8714 39.2088 100.343 38.9066C100.823 38.5955 101.387 38.44 102.036 38.44C102.649 38.44 103.191 38.5866 103.663 38.88C104.134 39.1644 104.498 39.5822 104.756 40.1333C105.023 40.6844 105.156 41.3555 105.156 42.1466V42.48H100.023C100.067 43.2355 100.267 43.8044 100.623 44.1866C100.987 44.5688 101.476 44.76 102.089 44.76C102.551 44.76 102.929 44.6533 103.223 44.44C103.525 44.2177 103.734 43.9288 103.849 43.5733L105.049 43.6666C104.863 44.2977 104.507 44.8177 103.983 45.2266C103.467 45.6266 102.836 45.8266 102.089 45.8266ZM100.023 41.4933H103.929C103.876 40.8088 103.676 40.3066 103.329 39.9866C102.991 39.6666 102.56 39.5066 102.036 39.5066C101.494 39.5066 101.045 39.6755 100.689 40.0133C100.343 40.3422 100.12 40.8355 100.023 41.4933ZM106.74 45.6666V38.6H107.766L107.806 40.3866L107.646 40.3333C107.726 39.9422 107.864 39.6088 108.06 39.3333C108.264 39.0488 108.513 38.8311 108.806 38.68C109.1 38.52 109.424 38.44 109.78 38.44C110.393 38.44 110.891 38.6088 111.273 38.9466C111.664 39.2844 111.908 39.7555 112.006 40.36L111.793 40.3466C111.864 39.9377 111.993 39.5955 112.18 39.32C112.375 39.0355 112.624 38.8177 112.926 38.6666C113.228 38.5155 113.575 38.44 113.966 38.44C114.473 38.44 114.9 38.5466 115.246 38.76C115.593 38.9644 115.855 39.2666 116.033 39.6666C116.211 40.0666 116.3 40.5511 116.3 41.12V45.6666H115.18V41.36C115.18 40.72 115.055 40.24 114.806 39.92C114.557 39.5911 114.188 39.4266 113.7 39.4266C113.371 39.4266 113.082 39.5066 112.833 39.6666C112.593 39.8266 112.406 40.0577 112.273 40.36C112.14 40.6533 112.073 41.0133 112.073 41.44V45.6666H110.953V41.44C110.953 40.8088 110.842 40.3155 110.62 39.96C110.397 39.6044 110.024 39.4266 109.5 39.4266C109.171 39.4266 108.882 39.5066 108.633 39.6666C108.393 39.8266 108.202 40.0577 108.06 40.36C107.926 40.6622 107.86 41.0222 107.86 41.44V45.6666H106.74ZM121.103 45.8266C120.436 45.8266 119.858 45.6755 119.369 45.3733C118.889 45.0711 118.516 44.6444 118.249 44.0933C117.992 43.5333 117.863 42.88 117.863 42.1333C117.863 41.3866 117.992 40.7377 118.249 40.1866C118.516 39.6355 118.885 39.2088 119.356 38.9066C119.836 38.5955 120.4 38.44 121.049 38.44C121.663 38.44 122.205 38.5866 122.676 38.88C123.147 39.1644 123.512 39.5822 123.769 40.1333C124.036 40.6844 124.169 41.3555 124.169 42.1466V42.48H119.036C119.08 43.2355 119.28 43.8044 119.636 44.1866C120 44.5688 120.489 44.76 121.103 44.76C121.565 44.76 121.943 44.6533 122.236 44.44C122.538 44.2177 122.747 43.9288 122.863 43.5733L124.063 43.6666C123.876 44.2977 123.52 44.8177 122.996 45.2266C122.48 45.6266 121.849 45.8266 121.103 45.8266ZM119.036 41.4933H122.943C122.889 40.8088 122.689 40.3066 122.343 39.9866C122.005 39.6666 121.574 39.5066 121.049 39.5066C120.507 39.5066 120.058 39.6755 119.703 40.0133C119.356 40.3422 119.134 40.8355 119.036 41.4933ZM125.753 45.6666V38.6H126.78L126.82 40.4L126.686 40.28C126.775 39.8622 126.931 39.52 127.153 39.2533C127.375 38.9777 127.642 38.7733 127.953 38.64C128.273 38.5066 128.615 38.44 128.98 38.44C129.522 38.44 129.966 38.56 130.313 38.8C130.669 39.04 130.931 39.3644 131.1 39.7733C131.278 40.1733 131.366 40.6222 131.366 41.12V45.6666H130.246V41.44C130.246 41.0044 130.193 40.64 130.086 40.3466C129.989 40.0444 129.829 39.8177 129.606 39.6666C129.384 39.5066 129.095 39.4266 128.74 39.4266C128.198 39.4266 127.749 39.6 127.393 39.9466C127.046 40.2844 126.873 40.7822 126.873 41.44V45.6666H125.753ZM135.62 45.6666C134.98 45.6666 134.504 45.52 134.193 45.2266C133.891 44.9333 133.74 44.4755 133.74 43.8533V36.9466H134.86V43.8266C134.86 44.1466 134.931 44.3688 135.073 44.4933C135.216 44.6177 135.433 44.68 135.727 44.68H136.74V45.6666H135.62ZM132.7 39.5866V38.6H136.74V39.5866H132.7Z" fill="#737373"/>
</svg>
